<svg id="visual" viewBox="0 0 900 600" width="900" height="600" xmlns="http://www.w3.org/2000/svg" xmlns:xlink="http://www.w3.org/1999/xlink" version="1.1"><rect x="0" y="0" width="900" height="600" fill="#fff"></rect><defs><linearGradient id="grad1_0" x1="33.3%" y1="0%" x2="100%" y2="100%"><stop offset="20%" stop-color="#00dd73" stop-opacity="1"></stop><stop offset="80%" stop-color="#00dd73" stop-opacity="1"></stop></linearGradient></defs><defs><linearGradient id="grad1_1" x1="33.3%" y1="0%" x2="100%" y2="100%"><stop offset="20%" stop-color="#00dd73" stop-opacity="1"></stop><stop offset="80%" stop-color="#a6f0b9" stop-opacity="1"></stop></linearGradient></defs><defs><linearGradient id="grad1_2" x1="33.3%" y1="0%" x2="100%" y2="100%"><stop offset="20%" stop-color="#ffffff" stop-opacity="1"></stop><stop offset="80%" stop-color="#a6f0b9" stop-opacity="1"></stop></linearGradient></defs><defs><linearGradient id="grad2_0" x1="0%" y1="0%" x2="66.7%" y2="100%"><stop offset="20%" stop-color="#00dd73" stop-opacity="1"></stop><stop offset="80%" stop-color="#00dd73" stop-opacity="1"></stop></linearGradient></defs><defs><linearGradient id="grad2_1" x1="0%" y1="0%" x2="66.7%" y2="100%"><stop offset="20%" stop-color="#a6f0b9" stop-opacity="1"></stop><stop offset="80%" stop-color="#00dd73" stop-opacity="1"></stop></linearGradient></defs><defs><linearGradient id="grad2_2" x1="0%" y1="0%" x2="66.7%" y2="100%"><stop offset="20%" stop-color="#a6f0b9" stop-opacity="1"></stop><stop offset="80%" stop-color="#ffffff" stop-opacity="1"></stop></linearGradient></defs><g transform="translate(900, 0)"><path d="M0 459.7C-70.8 464.2 -141.5 468.8 -175.9 424.7C-210.3 380.7 -208.4 288 -240.4 240.4C-272.4 192.8 -338.4 190.2 -380.6 157.7C-422.8 125.1 -441.3 62.6 -459.7 0L0 0Z" fill="#d4f8dc"></path><path d="M0 306.5C-47.2 309.5 -94.3 312.5 -117.3 283.1C-140.2 253.8 -138.9 192 -160.3 160.3C-181.6 128.5 -225.6 126.8 -253.8 105.1C-281.9 83.4 -294.2 41.7 -306.5 0L0 0Z" fill="#71e796"></path><path d="M0 153.2C-23.6 154.7 -47.2 156.3 -58.6 141.6C-70.1 126.9 -69.5 96 -80.1 80.1C-90.8 64.3 -112.8 63.4 -126.9 52.6C-140.9 41.7 -147.1 20.9 -153.2 0L0 0Z" fill="#00dd73"></path></g><g transform="translate(0, 600)"><path d="M0 -459.7C60.7 -435.1 121.4 -410.4 151.9 -366.8C182.5 -323.1 182.9 -260.5 231.9 -231.9C281 -203.4 378.6 -208.9 424.7 -175.9C470.8 -142.9 465.2 -71.5 459.7 0L0 0Z" fill="#d4f8dc"></path><path d="M0 -306.5C40.5 -290 80.9 -273.6 101.3 -244.5C121.7 -215.4 121.9 -173.7 154.6 -154.6C187.3 -135.6 252.4 -139.3 283.1 -117.3C313.9 -95.3 310.2 -47.6 306.5 0L0 0Z" fill="#71e796"></path><path d="M0 -153.2C20.2 -145 40.5 -136.8 50.6 -122.3C60.8 -107.7 61 -86.8 77.3 -77.3C93.7 -67.8 126.2 -69.6 141.6 -58.6C156.9 -47.6 155.1 -23.8 153.2 0L0 0Z" fill="#00dd73"></path></g></svg>