<svg id="visual" viewBox="0 0 900 600" width="900" height="600" xmlns="http://www.w3.org/2000/svg" xmlns:xlink="http://www.w3.org/1999/xlink" version="1.1"><rect x="0" y="0" width="900" height="600" fill="#ffffff"></rect><path d="M0 358L21.5 344.7C43 331.3 86 304.7 128.8 290C171.7 275.3 214.3 272.7 257.2 260.5C300 248.3 343 226.7 385.8 220.8C428.7 215 471.3 225 514.2 248.3C557 271.7 600 308.3 642.8 316.2C685.7 324 728.3 303 771.2 286C814 269 857 256 878.5 249.5L900 243L900 601L878.5 601C857 601 814 601 771.2 601C728.3 601 685.7 601 642.8 601C600 601 557 601 514.2 601C471.3 601 428.7 601 385.8 601C343 601 300 601 257.2 601C214.3 601 171.7 601 128.8 601C86 601 43 601 21.5 601L0 601Z" fill="#adff88"></path><path d="M0 294L21.5 290.3C43 286.7 86 279.3 128.8 278.3C171.7 277.3 214.3 282.7 257.2 285C300 287.3 343 286.7 385.8 298C428.7 309.3 471.3 332.7 514.2 334.7C557 336.7 600 317.3 642.8 307.8C685.7 298.3 728.3 298.7 771.2 306.2C814 313.7 857 328.3 878.5 335.7L900 343L900 601L878.5 601C857 601 814 601 771.2 601C728.3 601 685.7 601 642.8 601C600 601 557 601 514.2 601C471.3 601 428.7 601 385.8 601C343 601 300 601 257.2 601C214.3 601 171.7 601 128.8 601C86 601 43 601 21.5 601L0 601Z" fill="#8eec7d"></path><path d="M0 442L21.5 430C43 418 86 394 128.8 382.3C171.7 370.7 214.3 371.3 257.2 367.5C300 363.7 343 355.3 385.8 359C428.7 362.7 471.3 378.3 514.2 384C557 389.7 600 385.3 642.8 380.2C685.7 375 728.3 369 771.2 370.5C814 372 857 381 878.5 385.5L900 390L900 601L878.5 601C857 601 814 601 771.2 601C728.3 601 685.7 601 642.8 601C600 601 557 601 514.2 601C471.3 601 428.7 601 385.8 601C343 601 300 601 257.2 601C214.3 601 171.7 601 128.8 601C86 601 43 601 21.5 601L0 601Z" fill="#6fd972"></path><path d="M0 503L21.5 491.5C43 480 86 457 128.8 443.8C171.7 430.7 214.3 427.3 257.2 432.2C300 437 343 450 385.8 460.7C428.7 471.3 471.3 479.7 514.2 480.5C557 481.3 600 474.7 642.8 476.8C685.7 479 728.3 490 771.2 489C814 488 857 475 878.5 468.5L900 462L900 601L878.5 601C857 601 814 601 771.2 601C728.3 601 685.7 601 642.8 601C600 601 557 601 514.2 601C471.3 601 428.7 601 385.8 601C343 601 300 601 257.2 601C214.3 601 171.7 601 128.8 601C86 601 43 601 21.5 601L0 601Z" fill="#4ec668"></path><path d="M0 527L21.5 521.7C43 516.3 86 505.7 128.8 505.2C171.7 504.7 214.3 514.3 257.2 521.7C300 529 343 534 385.8 537.8C428.7 541.7 471.3 544.3 514.2 541.5C557 538.7 600 530.3 642.8 528.8C685.7 527.3 728.3 532.7 771.2 526.7C814 520.7 857 503.3 878.5 494.7L900 486L900 601L878.5 601C857 601 814 601 771.2 601C728.3 601 685.7 601 642.8 601C600 601 557 601 514.2 601C471.3 601 428.7 601 385.8 601C343 601 300 601 257.2 601C214.3 601 171.7 601 128.8 601C86 601 43 601 21.5 601L0 601Z" fill="#22b35e"></path></svg>